<?xml version="1.0" encoding="utf-8" standalone="no"?>
<!DOCTYPE svg PUBLIC "-//W3C//DTD SVG 1.1//EN"
  "http://www.w3.org/Graphics/SVG/1.1/DTD/svg11.dtd">
<!-- Created with matplotlib (http://matplotlib.org/) -->
<svg height="648pt" version="1.1" viewBox="0 0 648 648" width="648pt" xmlns="http://www.w3.org/2000/svg" xmlns:xlink="http://www.w3.org/1999/xlink">
 <defs>
  <style type="text/css">
*{stroke-linecap:butt;stroke-linejoin:round;}
  </style>
 </defs>
 <g id="figure_1">
  <g id="patch_1">
   <path d="M 0 648 
L 648 648 
L 648 0 
L 0 0 
z
" style="fill:#ffffff;"/>
  </g>
  <g id="axes_1">
   <g id="LineCollection_1">
    <path clip-path="url(#p7f2ee70efe)" d="M 122.29014 591.768595 
L 149.903662 446.745917 
" style="fill:none;stroke:#000000;stroke-width:3;"/>
    <path clip-path="url(#p7f2ee70efe)" d="M 351.223727 531.956086 
L 323.101164 383.340504 
" style="fill:none;stroke:#000000;stroke-width:3;"/>
    <path clip-path="url(#p7f2ee70efe)" d="M 158.87745 207.899917 
L 236.574179 192.690019 
" style="fill:none;stroke:#000000;stroke-width:3;"/>
    <path clip-path="url(#p7f2ee70efe)" d="M 236.574179 192.690019 
L 224.091021 333.447846 
" style="fill:none;stroke:#000000;stroke-width:3;"/>
    <path clip-path="url(#p7f2ee70efe)" d="M 224.091021 333.447846 
L 158.87745 207.899917 
" style="fill:none;stroke:#000000;stroke-width:3;"/>
    <path clip-path="url(#p7f2ee70efe)" d="M 224.091021 333.447846 
L 149.903662 446.745917 
" style="fill:none;stroke:#000000;stroke-width:3;"/>
    <path clip-path="url(#p7f2ee70efe)" d="M 224.091021 333.447846 
L 323.101164 383.340504 
" style="fill:none;stroke:#000000;stroke-width:3;"/>
    <path clip-path="url(#p7f2ee70efe)" d="M 56.231405 393.866221 
L 149.903662 446.745917 
" style="fill:none;stroke:#000000;stroke-width:3;"/>
    <path clip-path="url(#p7f2ee70efe)" d="M 505.04222 300.766012 
L 591.768595 267.899341 
" style="fill:none;stroke:#000000;stroke-width:3;"/>
    <path clip-path="url(#p7f2ee70efe)" d="M 505.04222 300.766012 
L 415.135553 329.573627 
" style="fill:none;stroke:#000000;stroke-width:3;"/>
    <path clip-path="url(#p7f2ee70efe)" d="M 323.101164 383.340504 
L 415.135553 329.573627 
" style="fill:none;stroke:#000000;stroke-width:3;"/>
    <path clip-path="url(#p7f2ee70efe)" d="M 323.101164 383.340504 
L 224.091021 333.447846 
" style="fill:none;stroke:#000000;stroke-width:3;"/>
    <path clip-path="url(#p7f2ee70efe)" d="M 570.760946 471.935895 
L 484.30172 451.84735 
" style="fill:none;stroke:#000000;stroke-width:3;"/>
    <path clip-path="url(#p7f2ee70efe)" d="M 137.857658 56.231405 
L 158.87745 207.899917 
" style="fill:none;stroke:#000000;stroke-width:3;"/>
    <path clip-path="url(#p7f2ee70efe)" d="M 65.533058 250.321864 
L 158.87745 207.899917 
" style="fill:none;stroke:#000000;stroke-width:3;"/>
    <path clip-path="url(#p7f2ee70efe)" d="M 65.533058 250.321864 
L 56.231405 393.866221 
" style="fill:none;stroke:#000000;stroke-width:3;"/>
   </g>
   <g id="LineCollection_2">
    <path clip-path="url(#p7f2ee70efe)" d="M 143.000281 483.001586 
L 149.903662 446.745917 
" style="fill:none;stroke:#000000;stroke-width:12;"/>
    <path clip-path="url(#p7f2ee70efe)" d="M 330.131805 420.494399 
L 323.101164 383.340504 
" style="fill:none;stroke:#000000;stroke-width:12;"/>
    <path clip-path="url(#p7f2ee70efe)" d="M 217.149997 196.492494 
L 236.574179 192.690019 
" style="fill:none;stroke:#000000;stroke-width:12;"/>
    <path clip-path="url(#p7f2ee70efe)" d="M 227.211811 298.25839 
L 224.091021 333.447846 
" style="fill:none;stroke:#000000;stroke-width:12;"/>
    <path clip-path="url(#p7f2ee70efe)" d="M 175.180843 239.2869 
L 158.87745 207.899917 
" style="fill:none;stroke:#000000;stroke-width:12;"/>
    <path clip-path="url(#p7f2ee70efe)" d="M 168.450502 418.421399 
L 149.903662 446.745917 
" style="fill:none;stroke:#000000;stroke-width:12;"/>
    <path clip-path="url(#p7f2ee70efe)" d="M 298.348628 370.867339 
L 323.101164 383.340504 
" style="fill:none;stroke:#000000;stroke-width:12;"/>
    <path clip-path="url(#p7f2ee70efe)" d="M 126.485598 433.525993 
L 149.903662 446.745917 
" style="fill:none;stroke:#000000;stroke-width:12;"/>
    <path clip-path="url(#p7f2ee70efe)" d="M 570.087001 276.116008 
L 591.768595 267.899341 
" style="fill:none;stroke:#000000;stroke-width:12;"/>
    <path clip-path="url(#p7f2ee70efe)" d="M 437.61222 322.371723 
L 415.135553 329.573627 
" style="fill:none;stroke:#000000;stroke-width:12;"/>
    <path clip-path="url(#p7f2ee70efe)" d="M 392.126956 343.015346 
L 415.135553 329.573627 
" style="fill:none;stroke:#000000;stroke-width:12;"/>
    <path clip-path="url(#p7f2ee70efe)" d="M 248.843557 345.921011 
L 224.091021 333.447846 
" style="fill:none;stroke:#000000;stroke-width:12;"/>
    <path clip-path="url(#p7f2ee70efe)" d="M 505.916526 456.869486 
L 484.30172 451.84735 
" style="fill:none;stroke:#000000;stroke-width:12;"/>
    <path clip-path="url(#p7f2ee70efe)" d="M 153.622502 169.982789 
L 158.87745 207.899917 
" style="fill:none;stroke:#000000;stroke-width:12;"/>
    <path clip-path="url(#p7f2ee70efe)" d="M 135.541352 218.505404 
L 158.87745 207.899917 
" style="fill:none;stroke:#000000;stroke-width:12;"/>
    <path clip-path="url(#p7f2ee70efe)" d="M 58.556818 357.980132 
L 56.231405 393.866221 
" style="fill:none;stroke:#000000;stroke-width:12;"/>
   </g>
   <g id="PathCollection_1">
    <defs>
     <path d="M 0 15.811388 
C 4.193229 15.811388 8.215279 14.145401 11.18034 11.18034 
C 14.145401 8.215279 15.811388 4.193229 15.811388 0 
C 15.811388 -4.193229 14.145401 -8.215279 11.18034 -11.18034 
C 8.215279 -14.145401 4.193229 -15.811388 0 -15.811388 
C -4.193229 -15.811388 -8.215279 -14.145401 -11.18034 -11.18034 
C -14.145401 -8.215279 -15.811388 -4.193229 -15.811388 0 
C -15.811388 4.193229 -14.145401 8.215279 -11.18034 11.18034 
C -8.215279 14.145401 -4.193229 15.811388 0 15.811388 
z
" id="C0_0_bb47097f4a"/>
    </defs>
    <g clip-path="url(#p7f2ee70efe)">
     <use style="fill:#80b1d3;stroke:#80b1d3;" x="122.29014" xlink:href="#C0_0_bb47097f4a" y="591.768595"/>
    </g>
    <g clip-path="url(#p7f2ee70efe)">
     <use style="fill:#ffffb3;stroke:#ffffb3;" x="415.135553" xlink:href="#C0_0_bb47097f4a" y="329.573627"/>
    </g>
    <g clip-path="url(#p7f2ee70efe)">
     <use style="fill:#ccebc5;stroke:#ccebc5;" x="351.223727" xlink:href="#C0_0_bb47097f4a" y="531.956086"/>
    </g>
    <g clip-path="url(#p7f2ee70efe)">
     <use style="fill:#fb8072;stroke:#fb8072;" x="158.87745" xlink:href="#C0_0_bb47097f4a" y="207.899917"/>
    </g>
    <g clip-path="url(#p7f2ee70efe)">
     <use style="fill:#fb8072;stroke:#fb8072;" x="236.574179" xlink:href="#C0_0_bb47097f4a" y="192.690019"/>
    </g>
    <g clip-path="url(#p7f2ee70efe)">
     <use style="fill:#80b1d3;stroke:#80b1d3;" x="591.768595" xlink:href="#C0_0_bb47097f4a" y="267.899341"/>
    </g>
    <g clip-path="url(#p7f2ee70efe)">
     <use style="fill:#fb8072;stroke:#fb8072;" x="224.091021" xlink:href="#C0_0_bb47097f4a" y="333.447846"/>
    </g>
    <g clip-path="url(#p7f2ee70efe)">
     <use style="fill:#d9d9d9;stroke:#d9d9d9;" x="484.30172" xlink:href="#C0_0_bb47097f4a" y="451.84735"/>
    </g>
    <g clip-path="url(#p7f2ee70efe)">
     <use style="fill:#bebada;stroke:#bebada;" x="56.231405" xlink:href="#C0_0_bb47097f4a" y="393.866221"/>
    </g>
    <g clip-path="url(#p7f2ee70efe)">
     <use style="fill:#80b1d3;stroke:#80b1d3;" x="505.04222" xlink:href="#C0_0_bb47097f4a" y="300.766012"/>
    </g>
    <g clip-path="url(#p7f2ee70efe)">
     <use style="fill:#fb8072;stroke:#fb8072;" x="323.101164" xlink:href="#C0_0_bb47097f4a" y="383.340504"/>
    </g>
    <g clip-path="url(#p7f2ee70efe)">
     <use style="fill:#d9d9d9;stroke:#d9d9d9;" x="570.760946" xlink:href="#C0_0_bb47097f4a" y="471.935895"/>
    </g>
    <g clip-path="url(#p7f2ee70efe)">
     <use style="fill:#ccebc5;stroke:#ccebc5;" x="137.857658" xlink:href="#C0_0_bb47097f4a" y="56.231405"/>
    </g>
    <g clip-path="url(#p7f2ee70efe)">
     <use style="fill:#ffffb3;stroke:#ffffb3;" x="149.903662" xlink:href="#C0_0_bb47097f4a" y="446.745917"/>
    </g>
    <g clip-path="url(#p7f2ee70efe)">
     <use style="fill:#ccebc5;stroke:#ccebc5;" x="65.533058" xlink:href="#C0_0_bb47097f4a" y="250.321864"/>
    </g>
   </g>
   <g id="text_1">
    <g clip-path="url(#p7f2ee70efe)">
     <!-- F -->
     <defs>
      <path d="M 9.8125 72.90625 
L 51.703125 72.90625 
L 51.703125 64.59375 
L 19.671875 64.59375 
L 19.671875 43.109375 
L 48.578125 43.109375 
L 48.578125 34.8125 
L 19.671875 34.8125 
L 19.671875 0 
L 9.8125 0 
z
" id="DejaVuSans-46"/>
     </defs>
     <g transform="translate(480.850782 455.1586)scale(0.12 -0.12)">
      <use xlink:href="#DejaVuSans-46"/>
     </g>
    </g>
   </g>
   <g id="text_2">
    <g clip-path="url(#p7f2ee70efe)">
     <!-- H -->
     <defs>
      <path d="M 9.8125 72.90625 
L 19.671875 72.90625 
L 19.671875 43.015625 
L 55.515625 43.015625 
L 55.515625 72.90625 
L 65.375 72.90625 
L 65.375 0 
L 55.515625 0 
L 55.515625 34.71875 
L 19.671875 34.71875 
L 19.671875 0 
L 9.8125 0 
z
" id="DejaVuSans-48"/>
     </defs>
     <g transform="translate(410.623366 332.884877)scale(0.12 -0.12)">
      <use xlink:href="#DejaVuSans-48"/>
     </g>
    </g>
   </g>
   <g id="text_3">
    <g clip-path="url(#p7f2ee70efe)">
     <!-- P -->
     <defs>
      <path d="M 19.671875 64.796875 
L 19.671875 37.40625 
L 32.078125 37.40625 
Q 38.96875 37.40625 42.71875 40.96875 
Q 46.484375 44.53125 46.484375 51.125 
Q 46.484375 57.671875 42.71875 61.234375 
Q 38.96875 64.796875 32.078125 64.796875 
z
M 9.8125 72.90625 
L 32.078125 72.90625 
Q 44.34375 72.90625 50.609375 67.359375 
Q 56.890625 61.8125 56.890625 51.125 
Q 56.890625 40.328125 50.609375 34.8125 
Q 44.34375 29.296875 32.078125 29.296875 
L 19.671875 29.296875 
L 19.671875 0 
L 9.8125 0 
z
" id="DejaVuSans-50"/>
     </defs>
     <g transform="translate(347.605915 535.267336)scale(0.12 -0.12)">
      <use xlink:href="#DejaVuSans-50"/>
     </g>
    </g>
   </g>
   <g id="text_4">
    <g clip-path="url(#p7f2ee70efe)">
     <!-- A -->
     <defs>
      <path d="M 34.1875 63.1875 
L 20.796875 26.90625 
L 47.609375 26.90625 
z
M 28.609375 72.90625 
L 39.796875 72.90625 
L 67.578125 0 
L 57.328125 0 
L 50.6875 18.703125 
L 17.828125 18.703125 
L 11.1875 0 
L 0.78125 0 
z
" id="DejaVuSans-41"/>
     </defs>
     <g transform="translate(154.773075 211.211167)scale(0.12 -0.12)">
      <use xlink:href="#DejaVuSans-41"/>
     </g>
    </g>
   </g>
   <g id="text_5">
    <g clip-path="url(#p7f2ee70efe)">
     <!-- B -->
     <defs>
      <path d="M 19.671875 34.8125 
L 19.671875 8.109375 
L 35.5 8.109375 
Q 43.453125 8.109375 47.28125 11.40625 
Q 51.125 14.703125 51.125 21.484375 
Q 51.125 28.328125 47.28125 31.5625 
Q 43.453125 34.8125 35.5 34.8125 
z
M 19.671875 64.796875 
L 19.671875 42.828125 
L 34.28125 42.828125 
Q 41.5 42.828125 45.03125 45.53125 
Q 48.578125 48.25 48.578125 53.8125 
Q 48.578125 59.328125 45.03125 62.0625 
Q 41.5 64.796875 34.28125 64.796875 
z
M 9.8125 72.90625 
L 35.015625 72.90625 
Q 46.296875 72.90625 52.390625 68.21875 
Q 58.5 63.53125 58.5 54.890625 
Q 58.5 48.1875 55.375 44.234375 
Q 52.25 40.28125 46.1875 39.3125 
Q 53.46875 37.75 57.5 32.78125 
Q 61.53125 27.828125 61.53125 20.40625 
Q 61.53125 10.640625 54.890625 5.3125 
Q 48.25 0 35.984375 0 
L 9.8125 0 
z
" id="DejaVuSans-42"/>
     </defs>
     <g transform="translate(232.457617 196.001269)scale(0.12 -0.12)">
      <use xlink:href="#DejaVuSans-42"/>
     </g>
    </g>
   </g>
   <g id="text_6">
    <g clip-path="url(#p7f2ee70efe)">
     <!-- K -->
     <defs>
      <path d="M 9.8125 72.90625 
L 19.671875 72.90625 
L 19.671875 42.09375 
L 52.390625 72.90625 
L 65.09375 72.90625 
L 28.90625 38.921875 
L 67.671875 0 
L 54.6875 0 
L 19.671875 35.109375 
L 19.671875 0 
L 9.8125 0 
z
" id="DejaVuSans-4b"/>
     </defs>
     <g transform="translate(587.833908 271.210591)scale(0.12 -0.12)">
      <use xlink:href="#DejaVuSans-4b"/>
     </g>
    </g>
   </g>
   <g id="text_7">
    <g clip-path="url(#p7f2ee70efe)">
     <!-- C -->
     <defs>
      <path d="M 64.40625 67.28125 
L 64.40625 56.890625 
Q 59.421875 61.53125 53.78125 63.8125 
Q 48.140625 66.109375 41.796875 66.109375 
Q 29.296875 66.109375 22.65625 58.46875 
Q 16.015625 50.828125 16.015625 36.375 
Q 16.015625 21.96875 22.65625 14.328125 
Q 29.296875 6.6875 41.796875 6.6875 
Q 48.140625 6.6875 53.78125 8.984375 
Q 59.421875 11.28125 64.40625 15.921875 
L 64.40625 5.609375 
Q 59.234375 2.09375 53.4375 0.328125 
Q 47.65625 -1.421875 41.21875 -1.421875 
Q 24.65625 -1.421875 15.125 8.703125 
Q 5.609375 18.84375 5.609375 36.375 
Q 5.609375 53.953125 15.125 64.078125 
Q 24.65625 74.21875 41.21875 74.21875 
Q 47.75 74.21875 53.53125 72.484375 
Q 59.328125 70.75 64.40625 67.28125 
" id="DejaVuSans-43"/>
     </defs>
     <g transform="translate(219.901334 336.759096)scale(0.12 -0.12)">
      <use xlink:href="#DejaVuSans-43"/>
     </g>
    </g>
   </g>
   <g id="text_8">
    <g clip-path="url(#p7f2ee70efe)">
     <!-- L -->
     <defs>
      <path d="M 9.8125 72.90625 
L 19.671875 72.90625 
L 19.671875 8.296875 
L 55.171875 8.296875 
L 55.171875 0 
L 9.8125 0 
z
" id="DejaVuSans-4c"/>
     </defs>
     <g transform="translate(118.947015 595.079845)scale(0.12 -0.12)">
      <use xlink:href="#DejaVuSans-4c"/>
     </g>
    </g>
   </g>
   <g id="text_9">
    <g clip-path="url(#p7f2ee70efe)">
     <!-- N -->
     <defs>
      <path d="M 9.8125 72.90625 
L 23.09375 72.90625 
L 55.421875 11.921875 
L 55.421875 72.90625 
L 64.984375 72.90625 
L 64.984375 0 
L 51.703125 0 
L 19.390625 60.984375 
L 19.390625 0 
L 9.8125 0 
z
" id="DejaVuSans-4e"/>
     </defs>
     <g transform="translate(51.742655 397.177471)scale(0.12 -0.12)">
      <use xlink:href="#DejaVuSans-4e"/>
     </g>
    </g>
   </g>
   <g id="text_10">
    <g clip-path="url(#p7f2ee70efe)">
     <!-- I -->
     <defs>
      <path d="M 9.8125 72.90625 
L 19.671875 72.90625 
L 19.671875 0 
L 9.8125 0 
z
" id="DejaVuSans-49"/>
     </defs>
     <g transform="translate(503.27222 304.077262)scale(0.12 -0.12)">
      <use xlink:href="#DejaVuSans-49"/>
     </g>
    </g>
   </g>
   <g id="text_11">
    <g clip-path="url(#p7f2ee70efe)">
     <!-- G -->
     <defs>
      <path d="M 59.515625 10.40625 
L 59.515625 29.984375 
L 43.40625 29.984375 
L 43.40625 38.09375 
L 69.28125 38.09375 
L 69.28125 6.78125 
Q 63.578125 2.734375 56.6875 0.65625 
Q 49.8125 -1.421875 42 -1.421875 
Q 24.90625 -1.421875 15.25 8.5625 
Q 5.609375 18.5625 5.609375 36.375 
Q 5.609375 54.25 15.25 64.234375 
Q 24.90625 74.21875 42 74.21875 
Q 49.125 74.21875 55.546875 72.453125 
Q 61.96875 70.703125 67.390625 67.28125 
L 67.390625 56.78125 
Q 61.921875 61.421875 55.765625 63.765625 
Q 49.609375 66.109375 42.828125 66.109375 
Q 29.4375 66.109375 22.71875 58.640625 
Q 16.015625 51.171875 16.015625 36.375 
Q 16.015625 21.625 22.71875 14.15625 
Q 29.4375 6.6875 42.828125 6.6875 
Q 48.046875 6.6875 52.140625 7.59375 
Q 56.25 8.5 59.515625 10.40625 
" id="DejaVuSans-47"/>
     </defs>
     <g transform="translate(318.452102 386.651754)scale(0.12 -0.12)">
      <use xlink:href="#DejaVuSans-47"/>
     </g>
    </g>
   </g>
   <g id="text_12">
    <g clip-path="url(#p7f2ee70efe)">
     <!-- E -->
     <defs>
      <path d="M 9.8125 72.90625 
L 55.90625 72.90625 
L 55.90625 64.59375 
L 19.671875 64.59375 
L 19.671875 43.015625 
L 54.390625 43.015625 
L 54.390625 34.71875 
L 19.671875 34.71875 
L 19.671875 8.296875 
L 56.78125 8.296875 
L 56.78125 0 
L 9.8125 0 
z
" id="DejaVuSans-45"/>
     </defs>
     <g transform="translate(566.969696 475.247145)scale(0.12 -0.12)">
      <use xlink:href="#DejaVuSans-45"/>
     </g>
    </g>
   </g>
   <g id="text_13">
    <g clip-path="url(#p7f2ee70efe)">
     <!-- O -->
     <defs>
      <path d="M 39.40625 66.21875 
Q 28.65625 66.21875 22.328125 58.203125 
Q 16.015625 50.203125 16.015625 36.375 
Q 16.015625 22.609375 22.328125 14.59375 
Q 28.65625 6.59375 39.40625 6.59375 
Q 50.140625 6.59375 56.421875 14.59375 
Q 62.703125 22.609375 62.703125 36.375 
Q 62.703125 50.203125 56.421875 58.203125 
Q 50.140625 66.21875 39.40625 66.21875 
M 39.40625 74.21875 
Q 54.734375 74.21875 63.90625 63.9375 
Q 73.09375 53.65625 73.09375 36.375 
Q 73.09375 19.140625 63.90625 8.859375 
Q 54.734375 -1.421875 39.40625 -1.421875 
Q 24.03125 -1.421875 14.8125 8.828125 
Q 5.609375 19.09375 5.609375 36.375 
Q 5.609375 53.65625 14.8125 63.9375 
Q 24.03125 74.21875 39.40625 74.21875 
" id="DejaVuSans-4f"/>
     </defs>
     <g transform="translate(133.134533 59.542655)scale(0.12 -0.12)">
      <use xlink:href="#DejaVuSans-4f"/>
     </g>
    </g>
   </g>
   <g id="text_14">
    <g clip-path="url(#p7f2ee70efe)">
     <!-- D -->
     <defs>
      <path d="M 19.671875 64.796875 
L 19.671875 8.109375 
L 31.59375 8.109375 
Q 46.6875 8.109375 53.6875 14.9375 
Q 60.6875 21.78125 60.6875 36.53125 
Q 60.6875 51.171875 53.6875 57.984375 
Q 46.6875 64.796875 31.59375 64.796875 
z
M 9.8125 72.90625 
L 30.078125 72.90625 
Q 51.265625 72.90625 61.171875 64.09375 
Q 71.09375 55.28125 71.09375 36.53125 
Q 71.09375 17.671875 61.125 8.828125 
Q 51.171875 0 30.078125 0 
L 9.8125 0 
z
" id="DejaVuSans-44"/>
     </defs>
     <g transform="translate(145.283662 450.057167)scale(0.12 -0.12)">
      <use xlink:href="#DejaVuSans-44"/>
     </g>
    </g>
   </g>
   <g id="text_15">
    <g clip-path="url(#p7f2ee70efe)">
     <!-- M -->
     <defs>
      <path d="M 9.8125 72.90625 
L 24.515625 72.90625 
L 43.109375 23.296875 
L 61.8125 72.90625 
L 76.515625 72.90625 
L 76.515625 0 
L 66.890625 0 
L 66.890625 64.015625 
L 48.09375 14.015625 
L 38.1875 14.015625 
L 19.390625 64.015625 
L 19.390625 0 
L 9.8125 0 
z
" id="DejaVuSans-4d"/>
     </defs>
     <g transform="translate(60.356183 253.633114)scale(0.12 -0.12)">
      <use xlink:href="#DejaVuSans-4d"/>
     </g>
    </g>
   </g>
  </g>
 </g>
 <defs>
  <clipPath id="p7f2ee70efe">
   <rect height="648" width="648" x="0" y="0"/>
  </clipPath>
 </defs>
</svg>
